HIERARCHY
ROOT Hips
{
	OFFSET 0.00000 0.00000 0.00000
	CHANNELS 6 Xposition Yposition Zposition Zrotation Yrotation Xrotation 
	JOINT LHipJoint
	{
		OFFSET 0 0 0
		CHANNELS 3 Zrotation Yrotation Xrotation
		JOINT LeftHip
		{
			OFFSET 1.84395 -1.68683 0.74144
			CHANNELS 3 Zrotation Yrotation Xrotation
			JOINT LeftKnee
			{
				OFFSET 2.27037 -6.23779 0.00000
				CHANNELS 3 Zrotation Yrotation Xrotation
				JOINT LeftAnkle
				{
					OFFSET 2.56918 -7.05877 0.00000
					CHANNELS 3 Zrotation Yrotation Xrotation
					JOINT LeftToe
					{
						OFFSET 0.22276 -0.61202 1.71784
						CHANNELS 3 Zrotation Yrotation Xrotation
						End Site
						{
							OFFSET 0.00000 -0.00000 0.91613
						}
					}
				}
			}
		}
	}
	JOINT RHipJoint
	{
		OFFSET 0 0 0
		CHANNELS 3 Zrotation Yrotation Xrotation
		JOINT RightHip
		{
			OFFSET -1.76833 -1.68684 0.74144
			CHANNELS 3 Zrotation Yrotation Xrotation
			JOINT RightKnee
			{
				OFFSET -2.49360 -6.85110 0.00000
				CHANNELS 3 Zrotation Yrotation Xrotation
				JOINT RightAnkle
				{
					OFFSET -2.55538 -7.02085 0.00000
					CHANNELS 3 Zrotation Yrotation Xrotation
					JOINT RightToe
					{
						OFFSET -0.21516 -0.59115 1.68050
						CHANNELS 3 Zrotation Yrotation Xrotation
						End Site
						{
							OFFSET -0.00000 -0.00000 0.89604
						}
					}
				}
			}
		}
	}
	JOINT lowerback
	{
		OFFSET 0 0 0
		CHANNELS 3 Zrotation Yrotation Xrotation
		JOINT Chest
		{
			OFFSET 0.06382 1.72312 -0.19613
			CHANNELS 3 Zrotation Yrotation Xrotation
			JOINT Chest2
			{
				OFFSET -0.00055 1.73507 0.23859
				CHANNELS 3 Zrotation Yrotation Xrotation
				JOINT lowerneck
				{
					OFFSET 0 0 0
					CHANNELS 3 Zrotation Yrotation Xrotation
					JOINT Neck
					{
						OFFSET 0.03638 1.65562 0.09633
						CHANNELS 3 Zrotation Yrotation Xrotation
						JOINT Head
						{
							OFFSET 0.06388 1.62807 -0.32386
							CHANNELS 3 Zrotation Yrotation Xrotation
							End Site
							{
								OFFSET 0.00995 1.67644 -0.12021
							}
						}
					}
				}
				JOINT LeftCollar
				{
					OFFSET 0 0 0
					CHANNELS 3 Zrotation Yrotation Xrotation
					JOINT LeftShoulder
					{
						OFFSET 3.09648 1.42991 0.28122
CHANNELS 3 Zrotation Xrotation Yrotation
						JOINT LeftElbow
						{
OFFSET 0 -5.118780 -0.000000
CHANNELS 3 Zrotation Xrotation Yrotation
							JOINT LeftWrist
							{
OFFSET 0 -3.599710 0.000000
CHANNELS 3 Zrotation Xrotation Yrotation
								JOINT lhand
								{
									OFFSET 0 0 0
CHANNELS 3 Zrotation Xrotation Yrotation
									JOINT LFingers
									{
OFFSET 0 -0.628770 0.000000
CHANNELS 3 Zrotation Xrotation Yrotation
										End Site
										{
OFFSET 0 -0.506930 0.000000
										}
									}
								}
								JOINT LThumb
								{
OFFSET 0 0.000000 0.000000
CHANNELS 3 Zrotation Xrotation Yrotation
									End Site
									{
OFFSET 0 -0.514670 0.514670
									}
								}
							}
						}
					}
				}
				JOINT RightCollar
				{
					OFFSET 0 0 0
					CHANNELS 3 Zrotation Yrotation Xrotation
					JOINT RightShoulder
					{
						OFFSET -3.33565 1.14597 0.05047
CHANNELS 3 Zrotation Xrotation Yrotation
						JOINT RightElbow
						{
OFFSET 0 -5.490200 0.000000
CHANNELS 3 Zrotation Xrotation Yrotation
							JOINT RightWrist
							{
OFFSET 0 -3.206590 -0.000000
CHANNELS 3 Zrotation Xrotation Yrotation
								JOINT rhand
								{
									OFFSET 0 0 0
CHANNELS 3 Zrotation Xrotation Yrotation
									JOINT RFingers
									{
OFFSET 0 -0.691880 0.000000
CHANNELS 3 Zrotation Xrotation Yrotation
										End Site
										{
OFFSET 0 -0.557810 0.000000
										}
									}
								}
								JOINT RThumb
								{
OFFSET 0 0.000000 0.000000
CHANNELS 3 Zrotation Xrotation Yrotation
									End Site
									{
OFFSET 0 -0.566330 0.566330
									}
								}
							}
						}
					}
				}
			}
		}
	}
}
MOTION
Frames: 6
Frame Time: 0.008333333333333333
0.756100 17.413100 9.087300 -8.944100 -2.702300 10.391300 0.000000 0.000000 0.000000 -17.122400 -40.467000 22.240000 0.054300 -1.504300 -4.137500 -5.586300 42.784700 -41.357500 0.414100 4.130800 11.445000 0.000000 0.000000 0.000000 25.529400 22.981200 1.636700 -0.049200 -1.431700 3.937500 0.691300 -18.477900 -19.075200 -0.052400 1.476500 -4.061000 5.436600 1.558200 -1.059500 1.092200 2.403700 -9.343400 -2.033300 0.805900 -9.114800 -7.916800 -12.906600 -5.616400 11.820000 -19.220300 17.312300 3.192000 -8.851200 8.214500 0.000000 0.000000 0.000000 -1.371000 7.055700 13.034100 6.768600 -11.537700 0.684600 18.468500 44.163200 12.206900 0.000000 0.000000 0.000000 -7.125000 0.000000 0.000000 -6.085500 17.176600 -4.039900 0.000000 0.000000 0.000000 4.660100 7.587100 -14.731700 -10.549200 -17.593900 -1.637000 5.943300 51.789300 30.449500 0.000000 0.000000 0.000000 7.125000 0.000000 -0.000000 39.609900 55.759800 -11.776500
0.757618 17.413236 9.092291 -8.933875 -2.726974 10.363816 0.000000 0.000000 0.000000 -17.187944 -40.397666 22.329065 0.056109 -1.528481 -4.204152 -5.565180 42.754800 -41.374543 0.429493 4.205655 11.655955 0.000000 0.000000 0.000000 25.528894 22.882453 1.686217 -0.048073 -1.415437 3.892757 0.685627 -18.420098 -19.031031 -0.130683 2.297415 -6.329738 5.261438 1.154651 -1.210452 1.678949 1.887276 -9.429849 -1.277770 0.589558 -9.184480 -9.026432 -12.292899 -5.140410 11.738187 -18.235918 17.335540 3.490213 -8.481657 8.125864 0.000000 0.000000 0.000000 -2.498837 7.589519 14.005632 6.928674 -11.801814 0.717017 18.681705 43.623880 12.104964 0.000000 0.000000 0.000000 -7.125000 0.000000 0.000000 -5.935366 17.265381 -3.927565 0.000000 0.000000 0.000000 3.448311 7.932500 -13.089088 -10.433658 -17.415087 -1.602274 5.853166 51.562366 30.434349 0.000000 0.000000 0.000000 7.125000 0.000000 0.000000 39.514514 55.766048 -11.747404
0.756537 17.416963 9.120388 -9.483397 -2.343044 10.678122 0.000000 0.000000 0.000000 -16.387771 -40.634224 22.157518 0.060454 -1.586353 -4.363860 -5.884858 43.126212 -40.900791 0.350430 3.803305 10.523848 0.000000 0.000000 0.000000 27.020910 25.770810 4.105781 -0.017518 -0.855131 2.350329 1.094617 -21.567916 -20.677112 -0.004135 -0.383081 1.052605 5.587768 0.617087 -2.101623 2.505403 1.168345 -9.541081 -0.525899 0.254668 -8.846736 -10.168484 -11.668552 -4.790733 11.652639 -17.250724 17.475641 3.782968 -8.104665 8.091918 0.000000 0.000000 0.000000 -3.802497 8.223289 13.366448 7.299295 -12.410677 0.794724 18.364620 42.538329 9.743054 0.000000 0.000000 0.000000 -7.125000 0.000000 0.000000 -6.139268 19.754563 -3.723976 0.000000 0.000000 0.000000 1.950207 7.980794 -11.649129 -9.928947 -16.628363 -1.454599 4.999276 52.176507 30.245387 0.000000 0.000000 0.000000 7.125000 0.000000 0.000000 38.568672 55.787785 -11.420964
0.756500 17.417718 9.122982 -9.470160 -2.270996 10.746653 0.000000 0.000000 0.000000 -16.315691 -40.673655 22.025673 0.060272 -1.583996 -4.357281 -5.948967 43.156370 -40.678972 0.340898 3.751798 10.379360 0.000000 0.000000 0.000000 26.981545 25.766558 4.042906 -0.017418 -0.851214 2.339376 1.100829 -21.611513 -20.700696 -0.006064 -0.501115 1.376906 5.495670 0.570694 -2.185541 2.562151 1.101291 -9.559658 -0.410373 0.231819 -8.822812 -10.243397 -11.569575 -4.934388 11.689442 -17.108421 17.552510 3.815608 -8.030670 8.136177 0.000000 0.000000 0.000000 -3.987374 8.128562 13.554532 7.334590 -12.468495 0.802320 18.278287 42.777279 9.384595 0.000000 0.000000 0.000000 -7.125000 0.000000 0.000000 -6.201047 20.134223 -3.709124 0.000000 0.000000 0.000000 1.778940 7.901408 -11.576532 -9.858760 -16.518427 -1.434556 4.938852 52.234154 30.193587 0.000000 0.000000 0.000000 7.125000 0.000000 0.000000 38.468144 55.758643 -11.355374
0.757772 17.416700 9.125009 -9.546639 -2.259327 10.770403 0.000000 0.000000 0.000000 -16.201635 -40.655875 21.999133 0.061127 -1.594927 -4.387498 -5.924116 43.128722 -40.719581 0.338427 3.738245 10.341353 0.000000 0.000000 0.000000 26.933625 25.335444 3.806964 -0.016482 -0.829596 2.280098 1.077051 -21.333370 -20.350473 -0.002863 -0.342705 0.941666 5.584040 0.688785 -2.257340 2.417139 1.251008 -9.625435 -0.619633 0.290885 -8.842971 -10.045644 -11.602500 -4.621032 11.750207 -17.206433 17.489053 3.813535 -8.076475 8.058461 0.000000 0.000000 0.000000 -3.647923 8.322360 12.700650 7.373932 -12.532977 0.810833 18.122390 42.396233 9.512119 0.000000 0.000000 0.000000 -7.125000 0.000000 0.000000 -6.312109 20.010935 -3.793874 0.000000 0.000000 0.000000 2.085666 8.008473 -12.070822 -9.870280 -16.536434 -1.437790 5.042566 52.285217 30.233457 0.000000 0.000000 0.000000 7.125000 0.000000 0.000000 38.597861 55.769543 -11.413551
0.758563 17.416100 9.126754 -9.602624 -2.221862 10.737640 0.000000 0.000000 0.000000 -16.198282 -40.689267 22.072755 0.060373 -1.585148 -4.360517 -5.929125 43.139569 -40.726421 0.335301 3.721081 10.293280 0.000000 0.000000 0.000000 26.964240 25.114126 3.716168 -0.017163 -0.845869 2.324727 1.050881 -21.139899 -20.233607 -0.002983 -0.353795 0.972042 5.600113 0.566573 -2.221504 2.582264 1.098470 -9.581519 -0.446232 0.222874 -8.826933 -10.218464 -11.517393 -4.879355 11.616081 -17.036613 17.632289 3.800781 -8.001621 8.134977 0.000000 0.000000 0.000000 -3.963927 8.264334 13.155423 7.400911 -12.577225 0.816680 18.103894 42.506818 9.509381 0.000000 0.000000 0.000000 -7.125000 0.000000 0.000000 -6.325345 20.014828 -3.801352 0.000000 0.000000 0.000000 1.814653 7.903769 -11.535539 -9.855164 -16.512715 -1.433475 5.093777 52.044338 30.331164 0.000000 0.000000 0.000000 7.125000 0.000000 0.000000 38.730304 55.836971 -11.528924
